<mxfile host="app.diagrams.net" agent="Mozilla/5.0 (Windows NT 10.0; Win64; x64) AppleWebKit/537.36 (KHTML, like Gecko) Chrome/133.0.0.0 Safari/537.36" version="24.8.3">
  <diagram name="Страница — 1" id="ZubHwUOHUlC0F_-Z9jXq">
    <mxGraphModel dx="1827" dy="621" grid="1" gridSize="10" guides="1" tooltips="1" connect="1" arrows="1" fold="1" page="1" pageScale="1" pageWidth="827" pageHeight="1169" math="0" shadow="0">
      <root>
        <mxCell id="0" />
        <mxCell id="1" parent="0" />
        <mxCell id="VuTAg5SG3zxlQCHcjEp8-40" value="Корабль" style="swimlane;childLayout=stackLayout;horizontal=1;startSize=50;horizontalStack=0;rounded=1;fontSize=14;fontStyle=0;strokeWidth=2;resizeParent=0;resizeLast=1;shadow=0;dashed=0;align=center;arcSize=4;whiteSpace=wrap;html=1;" vertex="1" parent="1">
          <mxGeometry x="667" y="160" width="160" height="120" as="geometry" />
        </mxCell>
        <mxCell id="VuTAg5SG3zxlQCHcjEp8-41" value="название&lt;div&gt;системы&lt;/div&gt;&lt;div&gt;топливо&lt;/div&gt;&lt;div&gt;орбита&lt;/div&gt;&lt;div&gt;&lt;br&gt;&lt;/div&gt;" style="align=left;strokeColor=none;fillColor=none;spacingLeft=4;fontSize=12;verticalAlign=top;resizable=0;rotatable=0;part=1;html=1;" vertex="1" parent="VuTAg5SG3zxlQCHcjEp8-40">
          <mxGeometry y="50" width="160" height="70" as="geometry" />
        </mxCell>
        <mxCell id="VuTAg5SG3zxlQCHcjEp8-42" value="Системы корабля" style="swimlane;childLayout=stackLayout;horizontal=1;startSize=50;horizontalStack=0;rounded=1;fontSize=14;fontStyle=0;strokeWidth=2;resizeParent=0;resizeLast=1;shadow=0;dashed=0;align=center;arcSize=4;whiteSpace=wrap;html=1;" vertex="1" parent="1">
          <mxGeometry x="400" y="80" width="160" height="110" as="geometry" />
        </mxCell>
        <mxCell id="VuTAg5SG3zxlQCHcjEp8-43" value="тип&lt;div&gt;необходимость&lt;/div&gt;&lt;div&gt;статус(вкл/выкл)&lt;/div&gt;" style="align=left;strokeColor=none;fillColor=none;spacingLeft=4;fontSize=12;verticalAlign=top;resizable=0;rotatable=0;part=1;html=1;" vertex="1" parent="VuTAg5SG3zxlQCHcjEp8-42">
          <mxGeometry y="50" width="160" height="60" as="geometry" />
        </mxCell>
        <mxCell id="VuTAg5SG3zxlQCHcjEp8-44" value="Необходимость" style="swimlane;childLayout=stackLayout;horizontal=1;startSize=50;horizontalStack=0;rounded=1;fontSize=14;fontStyle=0;strokeWidth=2;resizeParent=0;resizeLast=1;shadow=0;dashed=0;align=center;arcSize=4;whiteSpace=wrap;html=1;" vertex="1" parent="1">
          <mxGeometry x="120" y="80" width="160" height="90" as="geometry" />
        </mxCell>
        <mxCell id="VuTAg5SG3zxlQCHcjEp8-45" value="жизненно необходимо&lt;div&gt;необязательно&lt;/div&gt;" style="align=left;strokeColor=none;fillColor=none;spacingLeft=4;fontSize=12;verticalAlign=top;resizable=0;rotatable=0;part=1;html=1;" vertex="1" parent="VuTAg5SG3zxlQCHcjEp8-44">
          <mxGeometry y="50" width="160" height="40" as="geometry" />
        </mxCell>
        <mxCell id="VuTAg5SG3zxlQCHcjEp8-48" value="" style="edgeStyle=entityRelationEdgeStyle;fontSize=12;html=1;endArrow=ERoneToMany;startArrow=ERmandOne;rounded=1;entryX=1;entryY=0;entryDx=0;entryDy=0;exitX=-0.01;exitY=0.407;exitDx=0;exitDy=0;exitPerimeter=0;curved=0;" edge="1" parent="1" source="VuTAg5SG3zxlQCHcjEp8-41" target="VuTAg5SG3zxlQCHcjEp8-43">
          <mxGeometry width="100" height="100" relative="1" as="geometry">
            <mxPoint x="560" y="230" as="sourcePoint" />
            <mxPoint x="620" y="160" as="targetPoint" />
          </mxGeometry>
        </mxCell>
        <mxCell id="VuTAg5SG3zxlQCHcjEp8-49" value="Орбита" style="swimlane;childLayout=stackLayout;horizontal=1;startSize=50;horizontalStack=0;rounded=1;fontSize=14;fontStyle=0;strokeWidth=2;resizeParent=0;resizeLast=1;shadow=0;dashed=0;align=center;arcSize=4;whiteSpace=wrap;html=1;" vertex="1" parent="1">
          <mxGeometry x="290" y="270" width="160" height="90" as="geometry" />
        </mxCell>
        <mxCell id="VuTAg5SG3zxlQCHcjEp8-50" value="цель&lt;div&gt;высота&lt;/div&gt;" style="align=left;strokeColor=none;fillColor=none;spacingLeft=4;fontSize=12;verticalAlign=top;resizable=0;rotatable=0;part=1;html=1;" vertex="1" parent="VuTAg5SG3zxlQCHcjEp8-49">
          <mxGeometry y="50" width="160" height="40" as="geometry" />
        </mxCell>
        <mxCell id="VuTAg5SG3zxlQCHcjEp8-52" value="Человек" style="swimlane;childLayout=stackLayout;horizontal=1;startSize=50;horizontalStack=0;rounded=1;fontSize=14;fontStyle=0;strokeWidth=2;resizeParent=0;resizeLast=1;shadow=0;dashed=0;align=center;arcSize=4;whiteSpace=wrap;html=1;" vertex="1" parent="1">
          <mxGeometry x="330" y="520" width="160" height="90" as="geometry" />
        </mxCell>
        <mxCell id="VuTAg5SG3zxlQCHcjEp8-53" value="имя&lt;div&gt;пол&lt;/div&gt;" style="align=left;strokeColor=none;fillColor=none;spacingLeft=4;fontSize=12;verticalAlign=top;resizable=0;rotatable=0;part=1;html=1;" vertex="1" parent="VuTAg5SG3zxlQCHcjEp8-52">
          <mxGeometry y="50" width="160" height="40" as="geometry" />
        </mxCell>
        <mxCell id="VuTAg5SG3zxlQCHcjEp8-56" value="Космический объект" style="swimlane;childLayout=stackLayout;horizontal=1;startSize=50;horizontalStack=0;rounded=1;fontSize=14;fontStyle=0;strokeWidth=2;resizeParent=0;resizeLast=1;shadow=0;dashed=0;align=center;arcSize=4;whiteSpace=wrap;html=1;" vertex="1" parent="1">
          <mxGeometry x="-80" y="320" width="160" height="90" as="geometry" />
        </mxCell>
        <mxCell id="VuTAg5SG3zxlQCHcjEp8-57" value="название&lt;div&gt;координаты&lt;/div&gt;" style="align=left;strokeColor=none;fillColor=none;spacingLeft=4;fontSize=12;verticalAlign=top;resizable=0;rotatable=0;part=1;html=1;" vertex="1" parent="VuTAg5SG3zxlQCHcjEp8-56">
          <mxGeometry y="50" width="160" height="40" as="geometry" />
        </mxCell>
        <mxCell id="VuTAg5SG3zxlQCHcjEp8-62" value="Экипаж корабля" style="swimlane;childLayout=stackLayout;horizontal=1;startSize=50;horizontalStack=0;rounded=1;fontSize=14;fontStyle=0;strokeWidth=2;resizeParent=0;resizeLast=1;shadow=0;dashed=0;align=center;arcSize=4;whiteSpace=wrap;html=1;" vertex="1" parent="1">
          <mxGeometry x="600" y="510" width="160" height="90" as="geometry" />
        </mxCell>
        <mxCell id="VuTAg5SG3zxlQCHcjEp8-63" value="человек&lt;div&gt;корабль&lt;/div&gt;" style="align=left;strokeColor=none;fillColor=none;spacingLeft=4;fontSize=12;verticalAlign=top;resizable=0;rotatable=0;part=1;html=1;" vertex="1" parent="VuTAg5SG3zxlQCHcjEp8-62">
          <mxGeometry y="50" width="160" height="40" as="geometry" />
        </mxCell>
        <mxCell id="VuTAg5SG3zxlQCHcjEp8-68" value="Топливо" style="swimlane;childLayout=stackLayout;horizontal=1;startSize=50;horizontalStack=0;rounded=1;fontSize=14;fontStyle=0;strokeWidth=2;resizeParent=0;resizeLast=1;shadow=0;dashed=0;align=center;arcSize=4;whiteSpace=wrap;html=1;" vertex="1" parent="1">
          <mxGeometry x="90" y="200" width="160" height="90" as="geometry" />
        </mxCell>
        <mxCell id="VuTAg5SG3zxlQCHcjEp8-69" value="количество&lt;div&gt;тип&lt;/div&gt;" style="align=left;strokeColor=none;fillColor=none;spacingLeft=4;fontSize=12;verticalAlign=top;resizable=0;rotatable=0;part=1;html=1;" vertex="1" parent="VuTAg5SG3zxlQCHcjEp8-68">
          <mxGeometry y="50" width="160" height="40" as="geometry" />
        </mxCell>
        <mxCell id="VuTAg5SG3zxlQCHcjEp8-70" value="" style="edgeStyle=entityRelationEdgeStyle;fontSize=12;html=1;endArrow=ERmandOne;startArrow=ERmandOne;rounded=1;entryX=-0.001;entryY=0.646;entryDx=0;entryDy=0;exitX=1;exitY=0.5;exitDx=0;exitDy=0;entryPerimeter=0;curved=0;" edge="1" parent="1" source="VuTAg5SG3zxlQCHcjEp8-68" target="VuTAg5SG3zxlQCHcjEp8-41">
          <mxGeometry width="100" height="100" relative="1" as="geometry">
            <mxPoint x="350" y="315" as="sourcePoint" />
            <mxPoint x="450" y="215" as="targetPoint" />
          </mxGeometry>
        </mxCell>
        <mxCell id="VuTAg5SG3zxlQCHcjEp8-77" value="" style="edgeStyle=entityRelationEdgeStyle;fontSize=12;html=1;endArrow=ERmandOne;startArrow=ERmandOne;rounded=1;exitX=1;exitY=0.5;exitDx=0;exitDy=0;entryX=0.005;entryY=0.87;entryDx=0;entryDy=0;entryPerimeter=0;curved=0;" edge="1" parent="1" source="VuTAg5SG3zxlQCHcjEp8-49" target="VuTAg5SG3zxlQCHcjEp8-41">
          <mxGeometry width="100" height="100" relative="1" as="geometry">
            <mxPoint x="510" y="390" as="sourcePoint" />
            <mxPoint x="660" y="270" as="targetPoint" />
          </mxGeometry>
        </mxCell>
        <mxCell id="VuTAg5SG3zxlQCHcjEp8-78" value="" style="edgeStyle=entityRelationEdgeStyle;fontSize=12;html=1;endArrow=ERmandOne;startArrow=ERmandOne;rounded=1;entryX=0;entryY=0.5;entryDx=0;entryDy=0;exitX=1;exitY=0;exitDx=0;exitDy=0;curved=0;" edge="1" parent="1" source="VuTAg5SG3zxlQCHcjEp8-45" target="VuTAg5SG3zxlQCHcjEp8-43">
          <mxGeometry width="100" height="100" relative="1" as="geometry">
            <mxPoint x="280" y="210" as="sourcePoint" />
            <mxPoint x="380" y="110" as="targetPoint" />
          </mxGeometry>
        </mxCell>
        <mxCell id="VuTAg5SG3zxlQCHcjEp8-82" value="" style="edgeStyle=orthogonalEdgeStyle;fontSize=12;html=1;endArrow=ERoneToMany;rounded=1;exitX=0.75;exitY=1;exitDx=0;exitDy=0;entryX=1;entryY=0.5;entryDx=0;entryDy=0;" edge="1" parent="1" source="VuTAg5SG3zxlQCHcjEp8-41" target="VuTAg5SG3zxlQCHcjEp8-62">
          <mxGeometry width="100" height="100" relative="1" as="geometry">
            <mxPoint x="340" y="400" as="sourcePoint" />
            <mxPoint x="440" y="300" as="targetPoint" />
          </mxGeometry>
        </mxCell>
        <mxCell id="VuTAg5SG3zxlQCHcjEp8-84" value="Экспедиция" style="swimlane;childLayout=stackLayout;horizontal=1;startSize=50;horizontalStack=0;rounded=1;fontSize=14;fontStyle=0;strokeWidth=2;resizeParent=0;resizeLast=1;shadow=0;dashed=0;align=center;arcSize=4;whiteSpace=wrap;html=1;" vertex="1" parent="1">
          <mxGeometry x="290" y="380" width="160" height="90" as="geometry" />
        </mxCell>
        <mxCell id="VuTAg5SG3zxlQCHcjEp8-85" value="цели(локации)&lt;div&gt;корабли&lt;/div&gt;" style="align=left;strokeColor=none;fillColor=none;spacingLeft=4;fontSize=12;verticalAlign=top;resizable=0;rotatable=0;part=1;html=1;" vertex="1" parent="VuTAg5SG3zxlQCHcjEp8-84">
          <mxGeometry y="50" width="160" height="40" as="geometry" />
        </mxCell>
        <mxCell id="VuTAg5SG3zxlQCHcjEp8-86" value="" style="edgeStyle=entityRelationEdgeStyle;fontSize=12;html=1;endArrow=ERmany;startArrow=ERmany;rounded=1;exitX=1;exitY=0.75;exitDx=0;exitDy=0;entryX=0;entryY=0;entryDx=0;entryDy=0;curved=0;" edge="1" parent="1" source="VuTAg5SG3zxlQCHcjEp8-57" target="VuTAg5SG3zxlQCHcjEp8-85">
          <mxGeometry width="100" height="100" relative="1" as="geometry">
            <mxPoint x="340" y="520" as="sourcePoint" />
            <mxPoint x="440" y="420" as="targetPoint" />
          </mxGeometry>
        </mxCell>
        <mxCell id="VuTAg5SG3zxlQCHcjEp8-88" value="" style="edgeStyle=entityRelationEdgeStyle;fontSize=12;html=1;endArrow=ERoneToMany;rounded=1;exitX=0;exitY=0.5;exitDx=0;exitDy=0;entryX=1;entryY=0;entryDx=0;entryDy=0;curved=0;" edge="1" parent="1" source="VuTAg5SG3zxlQCHcjEp8-62" target="VuTAg5SG3zxlQCHcjEp8-53">
          <mxGeometry width="100" height="100" relative="1" as="geometry">
            <mxPoint x="739" y="291" as="sourcePoint" />
            <mxPoint x="640" y="455" as="targetPoint" />
          </mxGeometry>
        </mxCell>
        <mxCell id="VuTAg5SG3zxlQCHcjEp8-89" value="" style="edgeStyle=orthogonalEdgeStyle;fontSize=12;html=1;endArrow=ERmany;startArrow=ERmany;rounded=1;entryX=0.25;entryY=1;entryDx=0;entryDy=0;exitX=1;exitY=0.5;exitDx=0;exitDy=0;strokeColor=default;" edge="1" parent="1" source="VuTAg5SG3zxlQCHcjEp8-84" target="VuTAg5SG3zxlQCHcjEp8-41">
          <mxGeometry width="100" height="100" relative="1" as="geometry">
            <mxPoint x="680" y="510" as="sourcePoint" />
            <mxPoint x="780" y="410" as="targetPoint" />
          </mxGeometry>
        </mxCell>
        <mxCell id="VuTAg5SG3zxlQCHcjEp8-90" value="" style="edgeStyle=entityRelationEdgeStyle;fontSize=12;html=1;endArrow=ERmandOne;startArrow=ERmandOne;rounded=1;exitX=1;exitY=0.25;exitDx=0;exitDy=0;entryX=0;entryY=0.5;entryDx=0;entryDy=0;curved=0;" edge="1" parent="1" source="VuTAg5SG3zxlQCHcjEp8-56" target="VuTAg5SG3zxlQCHcjEp8-49">
          <mxGeometry width="100" height="100" relative="1" as="geometry">
            <mxPoint x="111" y="471" as="sourcePoint" />
            <mxPoint x="290" y="315" as="targetPoint" />
          </mxGeometry>
        </mxCell>
        <mxCell id="VuTAg5SG3zxlQCHcjEp8-91" value="Координаты" style="swimlane;childLayout=stackLayout;horizontal=1;startSize=50;horizontalStack=0;rounded=1;fontSize=14;fontStyle=0;strokeWidth=2;resizeParent=0;resizeLast=1;shadow=0;dashed=0;align=center;arcSize=4;whiteSpace=wrap;html=1;" vertex="1" parent="1">
          <mxGeometry x="-20" y="445" width="160" height="105" as="geometry" />
        </mxCell>
        <mxCell id="VuTAg5SG3zxlQCHcjEp8-92" value="x&lt;div&gt;y&lt;/div&gt;&lt;div&gt;z&lt;/div&gt;" style="align=left;strokeColor=none;fillColor=none;spacingLeft=4;fontSize=12;verticalAlign=top;resizable=0;rotatable=0;part=1;html=1;" vertex="1" parent="VuTAg5SG3zxlQCHcjEp8-91">
          <mxGeometry y="50" width="160" height="55" as="geometry" />
        </mxCell>
        <mxCell id="VuTAg5SG3zxlQCHcjEp8-94" value="" style="edgeStyle=orthogonalEdgeStyle;fontSize=12;html=1;endArrow=ERmandOne;startArrow=ERmandOne;rounded=0;exitX=0.25;exitY=1;exitDx=0;exitDy=0;entryX=0;entryY=0.25;entryDx=0;entryDy=0;" edge="1" parent="1" source="VuTAg5SG3zxlQCHcjEp8-57" target="VuTAg5SG3zxlQCHcjEp8-92">
          <mxGeometry width="100" height="100" relative="1" as="geometry">
            <mxPoint x="230" y="590" as="sourcePoint" />
            <mxPoint x="330" y="490" as="targetPoint" />
          </mxGeometry>
        </mxCell>
        <mxCell id="VuTAg5SG3zxlQCHcjEp8-97" value="Пол" style="swimlane;childLayout=stackLayout;horizontal=1;startSize=50;horizontalStack=0;rounded=1;fontSize=14;fontStyle=0;strokeWidth=2;resizeParent=0;resizeLast=1;shadow=0;dashed=0;align=center;arcSize=4;whiteSpace=wrap;html=1;" vertex="1" parent="1">
          <mxGeometry x="60" y="570" width="160" height="90" as="geometry" />
        </mxCell>
        <mxCell id="VuTAg5SG3zxlQCHcjEp8-98" value="мужской&lt;div&gt;женский&lt;/div&gt;" style="align=left;strokeColor=none;fillColor=none;spacingLeft=4;fontSize=12;verticalAlign=top;resizable=0;rotatable=0;part=1;html=1;" vertex="1" parent="VuTAg5SG3zxlQCHcjEp8-97">
          <mxGeometry y="50" width="160" height="40" as="geometry" />
        </mxCell>
        <mxCell id="VuTAg5SG3zxlQCHcjEp8-99" value="" style="edgeStyle=entityRelationEdgeStyle;fontSize=12;html=1;endArrow=ERmandOne;startArrow=ERmandOne;rounded=1;exitX=1;exitY=0.5;exitDx=0;exitDy=0;entryX=0;entryY=0.75;entryDx=0;entryDy=0;curved=0;" edge="1" parent="1" source="VuTAg5SG3zxlQCHcjEp8-97" target="VuTAg5SG3zxlQCHcjEp8-53">
          <mxGeometry width="100" height="100" relative="1" as="geometry">
            <mxPoint x="230" y="550" as="sourcePoint" />
            <mxPoint x="330" y="450" as="targetPoint" />
          </mxGeometry>
        </mxCell>
      </root>
    </mxGraphModel>
  </diagram>
</mxfile>
